<?xml version="1.0" encoding="UTF-8"?>
<svg xmlns="http://www.w3.org/2000/svg" xmlns:xlink="http://www.w3.org/1999/xlink" viewBox="0 0 522.39 258.7">
  <defs>
    <style>.cls-1{fill:#1d86c8;}.cls-2,.cls-3,.cls-4,.cls-5,.cls-6,.cls-7{fill-rule:evenodd;}.cls-2{fill:url(#linear-gradient);}.cls-3{fill:url(#linear-gradient-2);}.cls-4{fill:#42427d;}.cls-5{fill:url(#linear-gradient-3);}.cls-6{fill:url(#linear-gradient-4);}.cls-7{fill:url(#linear-gradient-5);}</style>
    <linearGradient id="linear-gradient" x1="125.62" y1="2.62" x2="29.35" y2="89.66" gradientUnits="userSpaceOnUse">
      <stop offset="0" stop-color="#0f6fb1"></stop>
      <stop offset="0.26" stop-color="#1172b4"></stop>
      <stop offset="0.48" stop-color="#197cbb"></stop>
      <stop offset="0.68" stop-color="#268ec9"></stop>
      <stop offset="0.86" stop-color="#38a6dc"></stop>
      <stop offset="1" stop-color="#49bced"></stop>
    </linearGradient>
    <linearGradient id="linear-gradient-2" x1="82.35" y1="171.25" x2="-12.73" y2="235.52" gradientUnits="userSpaceOnUse">
      <stop offset="0.36" stop-color="#0f6fb1"></stop>
      <stop offset="1" stop-color="#49bced"></stop>
    </linearGradient>
    <linearGradient id="linear-gradient-3" x1="24.17" y1="150.16" x2="221" y2="150.16" gradientUnits="userSpaceOnUse">
      <stop offset="0" stop-color="#e4282b"></stop>
      <stop offset="1" stop-color="#f3e731"></stop>
    </linearGradient>
    <linearGradient id="linear-gradient-4" x1="59.95" y1="125.83" x2="190.07" y2="125.83" xlink:href="#linear-gradient-3"></linearGradient>
    <linearGradient id="linear-gradient-5" x1="208.59" y1="2.33" x2="-22.19" y2="188.2" xlink:href="#linear-gradient-3"></linearGradient>
  </defs>
  <g id="Layer_2" data-name="Layer 2">
    <g id="Layer_1-2" data-name="Layer 1">
      <path class="cls-1" d="M315.34,247.6a23.66,23.66,0,0,1-4.49-.38,15,15,0,0,1-3.58-1.15v-3.93a23.35,23.35,0,0,0,3.48,1.38,15.84,15.84,0,0,0,4.64.62,12.54,12.54,0,0,0,3.1-.38,8.26,8.26,0,0,0,2.65-1.17,5.72,5.72,0,0,0,1.83-2.05,6.13,6.13,0,0,0,.67-3,5,5,0,0,0-.59-2.46,7.24,7.24,0,0,0-1.9-2.07,25,25,0,0,0-3.39-2.15,26.21,26.21,0,0,1-3.21-2.23,8.63,8.63,0,0,1-2.24-2.73,8,8,0,0,1-.83-3.79,9.59,9.59,0,0,1,.9-4.25,8.81,8.81,0,0,1,2.46-3.11,11.12,11.12,0,0,1,3.59-1.9,14.25,14.25,0,0,1,4.32-.65,18.27,18.27,0,0,1,4.71.54,21.32,21.32,0,0,1,3.85,1.46l-1.53,3.39a17.69,17.69,0,0,0-3.16-1.28,12.73,12.73,0,0,0-3.87-.58,9.39,9.39,0,0,0-2.76.39,6.67,6.67,0,0,0-2.25,1.16,5.44,5.44,0,0,0-1.5,1.92,6,6,0,0,0-.55,2.65,5.13,5.13,0,0,0,.58,2.54,6,6,0,0,0,1.69,1.83,31.53,31.53,0,0,0,2.77,1.79,40.79,40.79,0,0,1,3.69,2.43,9,9,0,0,1,2.49,2.8,8,8,0,0,1,.9,4,10.5,10.5,0,0,1-.91,4.53,8.53,8.53,0,0,1-2.57,3.22,11.56,11.56,0,0,1-3.95,1.93A18.53,18.53,0,0,1,315.34,247.6Z"></path>
      <path class="cls-1" d="M342.51,247.5a10.13,10.13,0,0,1-5.1-1.21,8.19,8.19,0,0,1-3.29-3.43A11.4,11.4,0,0,1,333,237.6a21.8,21.8,0,0,1,.54-4.83,20.72,20.72,0,0,1,1.6-4.52,15.09,15.09,0,0,1,2.63-3.76,11.51,11.51,0,0,1,3.61-2.57,10.87,10.87,0,0,1,4.56-.93,10.31,10.31,0,0,1,5.14,1.21,8.13,8.13,0,0,1,3.27,3.45,11.5,11.5,0,0,1,1.14,5.29,22.16,22.16,0,0,1-.53,4.78,20.33,20.33,0,0,1-1.57,4.5,14.86,14.86,0,0,1-2.62,3.77,11.71,11.71,0,0,1-3.62,2.57A10.93,10.93,0,0,1,342.51,247.5Zm.24-3.24a6.48,6.48,0,0,0,2.77-.62,7.62,7.62,0,0,0,2.4-1.77,11,11,0,0,0,1.87-2.85A16.63,16.63,0,0,0,351,235.2a23.61,23.61,0,0,0,.44-4.7,8.39,8.39,0,0,0-.54-3,5.31,5.31,0,0,0-1.74-2.36,5.09,5.09,0,0,0-3.2-.93,6.92,6.92,0,0,0-3.05.68,8.09,8.09,0,0,0-2.5,1.93,11.45,11.45,0,0,0-1.87,2.94,17.24,17.24,0,0,0-1.18,3.72,21.58,21.58,0,0,0-.41,4.25,7,7,0,0,0,1.5,4.79A5.42,5.42,0,0,0,342.75,244.26Z"></path>
      <path class="cls-1" d="M355.33,258.7a9.79,9.79,0,0,1-1.69-.14,9.37,9.37,0,0,1-1.37-.35v-3.32a9.73,9.73,0,0,0,1.3.39,6.22,6.22,0,0,0,1.41.15,3.09,3.09,0,0,0,2.7-1.39,11.49,11.49,0,0,0,1.55-4l5.41-25.69h-4.49l.33-1.67,4.78-1.43.56-2.5a20.08,20.08,0,0,1,1.31-4,8.46,8.46,0,0,1,1.8-2.61,6,6,0,0,1,2.41-1.4,10.8,10.8,0,0,1,3.16-.42,11.27,11.27,0,0,1,2.41.27,10.75,10.75,0,0,1,2,.62l-1,3a14.7,14.7,0,0,0-1.5-.46,7.41,7.41,0,0,0-1.74-.2,4.3,4.3,0,0,0-3.15,1.12,8.4,8.4,0,0,0-1.8,4.15l-.58,2.59h5.55l-.57,3h-5.57l-5.5,26.14a18.06,18.06,0,0,1-1.53,4.43,7.37,7.37,0,0,1-2.47,2.82A6.74,6.74,0,0,1,355.33,258.7Z"></path>
      <path class="cls-1" d="M381.49,247.6a7.1,7.1,0,0,1-4.27-1.24c-1.14-.82-1.71-2.24-1.71-4.24a13,13,0,0,1,.1-1.59,15,15,0,0,1,.3-1.78l3-14.42h-4l.38-1.81,4.28-1.64,2.82-5.46h2.33l-1.29,5.93h6.63l-.61,3H382.9l-3.06,14.47c-.11.44-.21.91-.29,1.41a8.11,8.11,0,0,0-.13,1.44,3.1,3.1,0,0,0,.61,2,2.42,2.42,0,0,0,2,.79,8.55,8.55,0,0,0,1.71-.17,13.7,13.7,0,0,0,1.73-.47v3a8.78,8.78,0,0,1-1.78.56A10.12,10.12,0,0,1,381.49,247.6Z"></path>
      <path class="cls-1" d="M392.52,247.13l-1.13-25.78h3.83l.45,14.23c.05,1.71.05,3.24,0,4.61s-.09,2.5-.15,3.41h.16c.25-.66.56-1.42.91-2.3s.72-1.74,1.1-2.62.75-1.67,1.07-2.37l7.09-15H410l.94,14.27c0,1.18.07,2.51.1,4s0,2.81,0,4h.16c.27-.79.58-1.66.94-2.63s.77-2,1.21-3.06.92-2.19,1.4-3.32l6-13.24h4.14l-12,25.78h-4.66l-.87-14.49c-.05-.82-.08-1.61-.08-2.38s0-1.56,0-2.37,0-1.71,0-2.66h-.19q-.42,1.16-.84,2.16c-.27.68-.58,1.39-.91,2.14s-.75,1.65-1.24,2.68l-7.06,14.92Z"></path>
      <path class="cls-1" d="M432.44,247.6a6.33,6.33,0,0,1-6.12-4,12,12,0,0,1-.87-4.82,24.54,24.54,0,0,1,.6-5.48,22.33,22.33,0,0,1,1.71-4.9,16.12,16.12,0,0,1,2.67-4,11.47,11.47,0,0,1,3.51-2.63,9.54,9.54,0,0,1,4.21-.94,6.3,6.3,0,0,1,5.17,2.38,9.45,9.45,0,0,1,1.35,2.27h.23l1.51-4.18h3l-5.46,25.78h-3.13l.71-5h-.19a19.54,19.54,0,0,1-2.43,2.66,12.15,12.15,0,0,1-3,2A7.92,7.92,0,0,1,432.44,247.6Zm1.27-3.25a5.92,5.92,0,0,0,3.58-1.33,12.87,12.87,0,0,0,3.2-3.6,18.37,18.37,0,0,0,2.18-5.11,16.4,16.4,0,0,0,.5-2.56,18.78,18.78,0,0,0,.13-2.17,5.78,5.78,0,0,0-1.28-3.92,4.37,4.37,0,0,0-3.49-1.49,5.9,5.9,0,0,0-3,.79,8.65,8.65,0,0,0-2.5,2.18,14.52,14.52,0,0,0-1.92,3.25,20.19,20.19,0,0,0-1.23,4,22.54,22.54,0,0,0-.44,4.45,6.48,6.48,0,0,0,1.11,4.1A3.76,3.76,0,0,0,433.71,244.35Z"></path>
      <path class="cls-1" d="M451.72,247.13l5.49-25.78h3.19l-.61,5H460c.66-.89,1.36-1.76,2.12-2.6a9.72,9.72,0,0,1,2.57-2,6.73,6.73,0,0,1,3.33-.8,11.53,11.53,0,0,1,1.43.08,7.07,7.07,0,0,1,1.37.27l-.85,3.5q-.63-.14-1.23-.21a10,10,0,0,0-1.24-.07,6.22,6.22,0,0,0-3.31.93,10.35,10.35,0,0,0-2.75,2.48,16.25,16.25,0,0,0-2,3.46,19.74,19.74,0,0,0-1.26,3.88l-2.52,11.93Z"></path>
      <path class="cls-1" d="M481.08,247.6a10.09,10.09,0,0,1-5-1.17,7.84,7.84,0,0,1-3.21-3.34,11.35,11.35,0,0,1-1.11-5.21,21.49,21.49,0,0,1,.9-6.15,19.35,19.35,0,0,1,2.6-5.48,13.57,13.57,0,0,1,4.08-3.92,10.08,10.08,0,0,1,5.35-1.45,8,8,0,0,1,5.39,1.58,5.49,5.49,0,0,1,1.83,4.37,7.4,7.4,0,0,1-.9,3.6,8,8,0,0,1-2.78,2.85,14.9,14.9,0,0,1-4.72,1.89,30.38,30.38,0,0,1-6.77.67h-.89c0,.28-.06.59-.08.94s0,.66,0,1a7.2,7.2,0,0,0,1.51,4.86,5.61,5.61,0,0,0,4.51,1.75,11.62,11.62,0,0,0,3.52-.53,26.53,26.53,0,0,0,3.47-1.4v3.37a25.26,25.26,0,0,1-3.51,1.3A15,15,0,0,1,481.08,247.6Zm-4.66-15H477a27.18,27.18,0,0,0,5.53-.53,9.83,9.83,0,0,0,4-1.74,3.93,3.93,0,0,0,1.53-3.24,2.85,2.85,0,0,0-.89-2.16,3.83,3.83,0,0,0-2.73-.85,5.89,5.89,0,0,0-3.2,1,10.05,10.05,0,0,0-2.86,2.91A15,15,0,0,0,476.42,232.64Z"></path>
      <path class="cls-2" d="M155.77,8.39,68.83,20.93c4.26,4.8,16,14.45,20.23,19.25-23,18-51.48,36.26-49.08,71.42C42.37,93.45,138.35,22.91,155.77,8.39Z"></path>
      <path class="cls-3" d="M69,155.89c6.48,6.13,4.31,10.79-.55,16.83-.5.62-1,1.27-1.59,1.94C50.94,193.56,12.33,229.46,0,242.29l69.87-39,6.87-3.83C96.43,182.38,84.67,167.58,69,155.89Z"></path>
      <path class="cls-4" d="M69,155.89c3.22,3.05,4.31,5.74,4,8.41h0c16.28,12.3,10.4,28,3.8,35.15C96.43,182.38,84.67,167.58,69,155.89Z"></path>
      <path class="cls-5" d="M61.54,150.89c1.06.6,2.26,1.33,3.47,2.17,17.51,12.1,33,27.91,11.73,46.39l23.26-13c18.72-10.45,22.73-28.23,5.37-40.62-18.22-13-35.41-30.63-26.13-45h0C66.79,113.12,48.72,132.61,61.54,150.89Z"></path>
      <path class="cls-6" d="M76.69,110.74a15.61,15.61,0,0,1,2.55-9.88h0C66.8,113.1,48.77,132.56,61.49,150.8,57.26,132,64.75,122.18,76.69,110.74Z"></path>
      <path class="cls-7" d="M126,62.05,143.5,81.81,175.29,0S77.57,74.57,53,103.13c-4.22,4.91-7.46,9.94-8.88,15.48-4.09,16,5.19,25.2,17.43,32.28l0-.08c-11.75-18.28,3.41-35.12,15.78-48C91.72,87.82,116.85,69.36,126,62.05Z"></path>
      <path class="cls-1" d="M145.12,187.75a15.6,15.6,0,0,1-8.61-2.37,15.44,15.44,0,0,1-5.73-7,28,28,0,0,1-2-11.31,57.64,57.64,0,0,1,1.4-12.85,52.66,52.66,0,0,1,4-11.47,38.77,38.77,0,0,1,6.26-9.27,27.4,27.4,0,0,1,8.25-6.17,22.44,22.44,0,0,1,9.87-2.21,14.84,14.84,0,0,1,12.11,5.6A21.7,21.7,0,0,1,173.8,136h.55l3.53-9.82h7l-12.8,60.46h-7.34l1.66-11.7H166a44.86,44.86,0,0,1-5.68,6.23,28.43,28.43,0,0,1-7,4.75A18.74,18.74,0,0,1,145.12,187.75Zm3-7.61a14,14,0,0,0,8.41-3.12,31,31,0,0,0,7.5-8.44,43.57,43.57,0,0,0,5.1-12,40.78,40.78,0,0,0,1.19-6,46.86,46.86,0,0,0,.3-5.1,13.6,13.6,0,0,0-3-9.19,10.23,10.23,0,0,0-8.19-3.5,13.89,13.89,0,0,0-7,1.85,20.44,20.44,0,0,0-5.87,5.13,33.45,33.45,0,0,0-4.5,7.61,46.8,46.8,0,0,0-2.89,9.41,52.68,52.68,0,0,0-1,10.42q0,6.35,2.59,9.63A8.83,8.83,0,0,0,148.1,180.14Z"></path>
      <path class="cls-1" d="M190,186.65l13-60.73H211l-1.43,11.64h.11a48.82,48.82,0,0,1,5-5.82,27.28,27.28,0,0,1,6.9-5,19.47,19.47,0,0,1,9-2,18,18,0,0,1,8.33,1.79,12.52,12.52,0,0,1,5.35,5.19,16.69,16.69,0,0,1,1.88,8.19,34.48,34.48,0,0,1-.39,5.13c-.26,1.73-.53,3.27-.83,4.63l-8,37h-9.76l8.16-38.17c.33-1.66.6-3.07.8-4.25a19.84,19.84,0,0,0,.3-3.31,7.73,7.73,0,0,0-2.09-5.85q-2.1-2-6.18-2a16.21,16.21,0,0,0-8.49,2.76,27.1,27.1,0,0,0-8.28,8.68,47.59,47.59,0,0,0-5.9,15.48l-5.68,26.64Z"></path>
      <path class="cls-1" d="M269.72,213.78q-10.65,0-16.66-4.05a13,13,0,0,1-6-11.39,14.54,14.54,0,0,1,4-10.23q4-4.34,12.82-7.26a8.11,8.11,0,0,1-3.17-2.78,7,7,0,0,1-1.08-3.89,8.81,8.81,0,0,1,2.76-6.48,27.65,27.65,0,0,1,7.72-5,14.16,14.16,0,0,1-5.68-5.35,15.28,15.28,0,0,1-2.15-8.11,27.19,27.19,0,0,1,1.88-10,21.7,21.7,0,0,1,12.38-12.36,24.42,24.42,0,0,1,9.07-1.65,31.19,31.19,0,0,1,4.2.28,32.43,32.43,0,0,1,4.13.82h20.41L313,131.87l-12,1.22a12.06,12.06,0,0,1,1.9,4,18.09,18.09,0,0,1,.58,5.13,25.2,25.2,0,0,1-1.82,9.77,20.38,20.38,0,0,1-5.18,7.39,21.36,21.36,0,0,1-7.2,4.16,28.86,28.86,0,0,1-9.3,1.52c-1,0-1.87,0-2.64-.11a11.59,11.59,0,0,1-2-.33,16.2,16.2,0,0,0-6,3.36,5.74,5.74,0,0,0-1.93,4.08,3.36,3.36,0,0,0,.94,2.49,5.71,5.71,0,0,0,2.45,1.24,31.44,31.44,0,0,0,3.89.69l6.51.71a38.34,38.34,0,0,1,10.81,2.62,13.43,13.43,0,0,1,6.18,5,14.28,14.28,0,0,1,2,7.77,18.55,18.55,0,0,1-2.71,10.12,20.12,20.12,0,0,1-7.77,7,34.93,34.93,0,0,1-8.91,3A55.76,55.76,0,0,1,269.72,213.78Zm.38-6.67a41.81,41.81,0,0,0,9-.88,22.68,22.68,0,0,0,6.7-2.54,13.29,13.29,0,0,0,4.55-4.41,11.26,11.26,0,0,0,1.57-6,7.5,7.5,0,0,0-.47-2.7,5.75,5.75,0,0,0-1.46-2.15,11.22,11.22,0,0,0-4.41-2.43,32.53,32.53,0,0,0-7.28-1.32l-8.83-.89a24,24,0,0,0-7.75,2.95,14,14,0,0,0-4.71,4.66,11.69,11.69,0,0,0-1.6,6.07,8.05,8.05,0,0,0,3.75,7.06Q262.88,207.11,270.1,207.11ZM280.42,159a13.2,13.2,0,0,0,8-2.4,15.49,15.49,0,0,0,5.05-6.4,21.3,21.3,0,0,0,1.77-8.74,13,13,0,0,0-.64-4.22,7.58,7.58,0,0,0-1.9-3.06,7.86,7.86,0,0,0-3.06-1.93,12.5,12.5,0,0,0-4.22-.66,13.94,13.94,0,0,0-6.23,1.35,13.43,13.43,0,0,0-4.66,3.72,17.15,17.15,0,0,0-2.93,5.52,21.66,21.66,0,0,0-1,6.73,13,13,0,0,0,.61,4.14,8.4,8.4,0,0,0,1.76,3.08C274.66,158.06,277.14,159,280.42,159Z"></path>
      <path class="cls-1" d="M332.21,187.75a17.69,17.69,0,0,1-8-1.71,12,12,0,0,1-5.26-5,16.59,16.59,0,0,1-1.85-8.19,30.16,30.16,0,0,1,.36-4.71c.24-1.53.5-3.12.8-4.78l8-37.12h9.27l-8.22,38.17c-.29,1.58-.52,3-.69,4.22a26,26,0,0,0-.25,3.28,8.67,8.67,0,0,0,2,6.1q2,2.17,6.42,2.18a16.57,16.57,0,0,0,8.69-2.82,27.73,27.73,0,0,0,8.44-8.85,47,47,0,0,0,5.93-15.69l5.63-26.59h9l-12.8,60.46h-7.55l1.49-11.7h-.5a49.09,49.09,0,0,1-5.07,5.82,28,28,0,0,1-6.9,5A19.42,19.42,0,0,1,332.21,187.75Z"></path>
      <path class="cls-1" d="M379.15,186.65,392,126.19h9.21l-12.85,60.46Zm20.57-71.05a5.31,5.31,0,0,1-3.66-1.29,4.64,4.64,0,0,1-1.46-3.67,8,8,0,0,1,.74-3.42,6.28,6.28,0,0,1,2.15-2.57,6,6,0,0,1,3.45-1,4.8,4.8,0,0,1,3.64,1.27,4.88,4.88,0,0,1,1.21,3.53,7.1,7.1,0,0,1-1.87,5.18A5.72,5.72,0,0,1,399.72,115.6Z"></path>
      <path class="cls-1" d="M407.28,186.65l13-60.73h8.11l-1.43,11.64H427a48.82,48.82,0,0,1,5-5.82,27.28,27.28,0,0,1,6.9-5,19.47,19.47,0,0,1,9-2,18,18,0,0,1,8.33,1.79,12.52,12.52,0,0,1,5.35,5.19,16.69,16.69,0,0,1,1.88,8.19,34.48,34.48,0,0,1-.39,5.13c-.26,1.73-.53,3.27-.83,4.63l-8,37h-9.76l8.16-38.17c.33-1.66.6-3.07.8-4.25a19.84,19.84,0,0,0,.3-3.31,7.73,7.73,0,0,0-2.09-5.85q-2.1-2-6.18-2a16.24,16.24,0,0,0-8.49,2.76,27.1,27.1,0,0,0-8.28,8.68,47.59,47.59,0,0,0-5.9,15.48l-5.68,26.64Z"></path>
      <path class="cls-1" d="M497,187.75a23.73,23.73,0,0,1-11.7-2.73,18.37,18.37,0,0,1-7.53-7.83A26.56,26.56,0,0,1,475.13,165a49.8,49.8,0,0,1,2.12-14.42,45.62,45.62,0,0,1,6.09-12.86,31.63,31.63,0,0,1,9.57-9.18,23.6,23.6,0,0,1,12.55-3.42q8.32,0,12.63,3.72t4.3,10.24a17.13,17.13,0,0,1-2.12,8.43,18.88,18.88,0,0,1-6.51,6.71,35.2,35.2,0,0,1-11.08,4.41,70.11,70.11,0,0,1-15.86,1.57h-2.1c-.07.66-.14,1.4-.19,2.21s-.08,1.56-.08,2.26q0,7.28,3.53,11.39t10.59,4.11a27.16,27.16,0,0,0,8.24-1.24,63.41,63.41,0,0,0,8.14-3.29v7.89a57.7,57.7,0,0,1-8.22,3.06A35.65,35.65,0,0,1,497,187.75Zm-10.92-35.08h1.32a62.81,62.81,0,0,0,13-1.24,22.61,22.61,0,0,0,9.49-4.08,9.19,9.19,0,0,0,3.58-7.59,6.65,6.65,0,0,0-2.09-5.07q-2.1-2-6.4-2a13.8,13.8,0,0,0-7.5,2.35,23,23,0,0,0-6.7,6.81A34.88,34.88,0,0,0,486.05,152.67Z"></path>
    </g>
  </g>
</svg>
